# xmcd CD database file
#
# Track frame offsets:
#	150
#	29998
#	40518
#	71837
#	94404
#	123999
#	142788
#	173740
#
# Disc length: 2649 seconds
#
# Revision: 2
# Processed by: cddbd v1.4b41PL1 Copyright (c) Steve Scherf et al.
# Submitted via: Feurio! 1.50.2ß - http://www.feurio.com
#
DISCID=6d0a5708
DTITLE=HOBO BLUES BAND - ESZTRÁD
DYEAR=1900
DGENRE=
TTITLE0=45-ÖS BLUES
TTITLE1=TÚL AZ ÓPERENCIÁN
TTITLE2=BANÁLIS BLUES
TTITLE3=6:3
TTITLE4=LOMBARDOZZI
TTITLE5=ÉS JÖTT A KÉT LATABÁR
TTITLE6=A KIS VÖRÖS KAKAS
TTITLE7=ARS BLUESICA
EXTD=
EXTT0=
EXTT1=
EXTT2=
EXTT3=
EXTT4=
EXTT5=
EXTT6=
EXTT7=
PLAYORDER=
